# xmcd CD database file
#
# Track frame offsets:
#	150
#	19290
#	33980
#	47045
#	65642
#	88392
#	109965
#	124055
#	137655
#	164912
#
# Disc length: 2489 seconds
#
# Revision: 0
# Processed by: cddbd v1.5.2PL0 Copyright (c) Steve Scherf et al.
# Submitted via: CDex 1.51
#
DISCID=9609b70a
DTITLE=Dave Riley and Bob Corritore - Lucky To Be Living
DYEAR=2009
DGENRE=Blues
TTITLE0=Jelly Roll King
TTITLE1=Ride With Your Daddy Tonight
TTITLE2=On My Way
TTITLE3=Lucky To Be Living
TTITLE4=Back Down The Dirt Road
TTITLE5=Let's Get Together
TTITLE6=Country Rules
TTITLE7=The Things You Do
TTITLE8=Sharecropper Blues
TTITLE9=Dave Riley and Bob Corritore - Automobile
EXTD=YEAR: 2009
EXTT0=
EXTT1=
EXTT2=
EXTT3=
EXTT4=
EXTT5=
EXTT6=
EXTT7=
EXTT8=
EXTT9=
PLAYORDER=
